#!OML:ASF F:\VICON\USERDATA\INSTALL\Justin_Nancy\Justin_Nancy.ASF
:FULLY-SPECIFIED
:DEGREES
184
root -10.2975 17.4071 -7.0639 1.47686 0.393215 1.47828
lowerback 6.73219 -1.14795 -3.03717
upperback 0.982242 -1.67145 2.63554
thorax -2.5928 -0.796824 4.58804
lowerneck -16.8397 -2.32404 -9.05003
upperneck 23.1928 -1.64282 3.59362
head 10.3204 -1.13267 2.56859
rclavicle 8.64713e-015 6.36111e-015
rhumerus -33.5964 -16.425 -76.229
rradius 29.92
rwrist 8.15017
rhand -14.1397 17.334
rfingers 7.12502
rthumb 11.9944 -12.3023
lclavicle 8.64713e-015 6.36111e-015
lhumerus -27.1413 4.95106 83.8317
lradius 39.6415
lwrist -5.37209
lhand -16.4238 26.314
lfingers 7.12502
lthumb 9.79129 56.0663
rfemur -25.2836 7.83459 13.0755
rtibia 16.5865
rfoot -5.6662 6.95639
rtoes -13.6646
lfemur -1.52788 -5.16458 -26.6492
ltibia 26.7284
lfoot -18.3017 -1.9848
ltoes -5.03517
185
root -10.3143 17.4069 -6.94296 1.57197 0.59632 1.51547
lowerback 6.81007 -1.11278 -3.17475
upperback 0.811833 -1.63482 2.66266
thorax -2.81192 -0.768764 4.69772
lowerneck -16.7121 -2.28284 -9.00143
upperneck 23.5097 -1.60602 3.56307
head 10.4078 -1.12249 2.55952
rclavicle 2.41523e-014 1.03368e-014
rhumerus -33.8046 -16.4439 -76.1349
rradius 29.8517
rwrist 8.28227
rhand -14.9041 18.0279
rfingers 7.12502
rthumb 11.2572 -11.65
lclavicle 2.41523e-014 1.03368e-014
lhumerus -27.5809 4.86798 83.8834
lradius 39.872
lwrist -5.40843
lhand -14.9089 32.7885
lfingers 7.12502
lthumb 11.2526 62.4666
rfemur -25.3644 8.08612 13.0267
rtibia 17.3104
rfoot -4.55409 7.30303
rtoes -9.60779
lfemur -1.50885 -5.39782 -26.6622
ltibia 27.1769
lfoot -18.1683 -2.09477
ltoes -5.85906
186
root -10.3332 17.4121 -6.8178 1.57044 1.0415 1.67669
lowerback 6.84937 -1.17284 -3.37143
upperback 0.760279 -1.73141 2.62639
thorax -2.87255 -0.812431 4.78227
lowerneck -16.5296 -2.25237 -8.99968
upperneck 23.5466 -1.56472 3.49768
head 10.3832 -1.113 2.54219
rclavicle 4.00551e-014 1.74931e-014
rhumerus -34.0048 -16.0727 -76.2496
rradius 30.0512
rwrist 7.93806
rhand -15.0053 17.8713
rfingers 7.12502
rthumb 11.1596 -11.8119
lclavicle 4.00551e-014 1.74931e-014
lhumerus -27.7625 4.95266 83.8311
lradius 39.8641
lwrist -5.602
lhand -16.3605 28.4179
lfingers 7.12502
lthumb 9.85239 58.1674
rfemur -25.2053 8.06732 12.936
rtibia 18.1759
rfoot -4.13567 7.46632
rtoes -7.29215
lfemur -1.38735 -5.76559 -26.7873
ltibia 27.6137
lfoot -17.9509 -2.454
ltoes -4.42303
187
root -10.3541 17.4073 -6.68796 1.54358 1.44299 1.84235
lowerback 6.70826 -1.22988 -3.61748
upperback 0.788866 -1.82332 2.59216
thorax -2.74755 -0.85959 4.88861
lowerneck -16.345 -2.2434 -8.97708
upperneck 23.6217 -1.54569 3.37769
head 10.3735 -1.11914 2.49918
rclavicle 5.26779e-015 8.74653e-015
rhumerus -34.2837 -15.9779 -76.2659
rradius 30.266
rwrist 7.88782
rhand -15.2369 18.3155
rfingers 7.12502
rthumb 10.9363 -11.3797
lclavicle 5.26779e-015 8.74653e-015
lhumerus -27.6439 5.05898 83.7851
lradius 39.6149
lwrist -5.763
lhand -16.9205 25.3998
lfingers 7.12502
lthumb 9.31206 55.1741
rfemur -25.0297 8.27867 12.8276
rtibia 19.1241
rfoot -4.64101 7.50357
rtoes -7.40296
lfemur -1.05988 -6.10107 -26.9122
ltibia 28.0155
lfoot -17.7934 -2.57003
ltoes -4.10176
188
root -10.3706 17.405 -6.55031 1.50331 1.7171 1.82854
lowerback 6.39923 -1.22649 -3.58185
upperback 0.952072 -1.80864 2.5709
thorax -2.40906 -0.864801 4.83063
lowerneck -16.4959 -2.25315 -8.9577
upperneck 23.7457 -1.54943 3.37894
head 10.4477 -1.12024 2.49754
rclavicle -6.26172e-015 5.56597e-015
rhumerus -34.1848 -16.117 -76.2847
rradius 30.2433
rwrist 7.89657
rhand -15.3605 18.3143
rfingers 7.12502
rthumb 10.8171 -11.3872
lclavicle -6.26172e-015 5.56597e-015
lhumerus -27.3541 5.1492 83.7678
lradius 39.3197
lwrist -5.96151
lhand -16.8871 24.6836
lfingers 7.12502
lthumb 9.34433 54.4565
rfemur -24.8958 8.79286 12.8532
rtibia 20.0557
rfoot -5.25007 7.59749
rtoes -7.16748
lfemur -0.739756 -6.47564 -26.9006
ltibia 28.4336
lfoot -17.5558 -2.57598
ltoes -5.49042
189
root -10.3867 17.4157 -6.41201 1.37961 1.97554 1.81972
lowerback 6.31612 -1.18305 -3.53238
upperback 1.08687 -1.74607 2.53493
thorax -2.23257 -0.841101 4.75442
lowerneck -16.645 -2.2427 -8.97086
upperneck 23.836 -1.53721 3.46284
head 10.5087 -1.10625 2.53302
rclavicle 2.71341e-014 -7.15625e-015
rhumerus -34.0308 -16.4949 -76.2392
rradius 29.8768
rwrist 7.64679
rhand -15.1775 17.264
rfingers 7.12502
rthumb 10.9935 -12.4281
lclavicle 2.71341e-014 -7.15625e-015
lhumerus -27.2453 5.10464 83.794
lradius 39.1896
lwrist -5.98833
lhand -17.0975 24.5642
lfingers 7.12502
lthumb 9.14127 54.346
rfemur -24.7033 9.23284 12.9343
rtibia 20.9034
rfoot -5.41874 7.96332
rtoes -4.84068
lfemur -0.402192 -6.70051 -26.8826
ltibia 28.9039
lfoot -17.334 -2.72906
ltoes -7.17584
